
<svg width="16px" height="20px" viewBox="0 0 16 20" version="1.1" xmlns="http://www.w3.org/2000/svg" xmlns:xlink="http://www.w3.org/1999/xlink">
    <g id="Symbols" stroke="none" stroke-width="1" fill="none" fill-rule="evenodd">
        <g id="Icons-/-Bell-/-Fill" transform="translate(-2.000000, 0.000000)" fill="#000000">
            <path d="M10,19.5 C11.1,19.5 12,18.6 12,17.5 L8,17.5 C8,18.6 8.89,19.5 10,19.5 Z M16,13.5 L16,8.5 C16,5.43 14.36,2.86 11.5,2.18 L11.5,1.5 C11.5,0.67 10.83,0 10,0 C9.17,0 8.5,0.67 8.5,1.5 L8.5,2.18 C5.63,2.86 4,5.42 4,8.5 L4,13.5 L2,15.5 L2,16.5 L18,16.5 L18,15.5 L16,13.5 Z" id="Shape"></path>
        </g>
    </g>
</svg>