
<svg width="18px" height="20px" viewBox="0 0 18 20" version="1.1" xmlns="http://www.w3.org/2000/svg" xmlns:xlink="http://www.w3.org/1999/xlink">
    <g id="Symbols" stroke="none" stroke-width="1" fill="none" fill-rule="evenodd">
        <g id="Icons-/-Power-Off" transform="translate(-1.000000, 0.000000)" fill="#4A4A4A">
            <path d="M5.85650994,3.95066667 C4.59892476,4.67222222 3.5492197,5.71377778 2.82186326,6.96133333 C2.09652289,8.20466667 1.7132439,9.626 1.7132439,11.0717778 C1.7132439,15.6048889 5.43066929,19.2924444 10,19.2924444 C14.5693307,19.2924444 18.2867561,15.6046667 18.2867561,11.0717778 C18.2867561,9.626 17.9034771,8.20466667 17.1781367,6.96133333 C16.4510043,5.71377778 15.4012993,4.67266667 14.1434901,3.95066667 C13.9730194,3.85266667 13.9147771,3.63644444 14.013565,3.46733333 C14.1121288,3.29822222 14.3305374,3.24088889 14.50056,3.33844444 C15.8663414,4.12222222 17.00565,5.25244444 17.7955049,6.60711111 C18.5835677,7.958 19,9.50177778 19,11.0717778 C19,15.9946667 14.9624661,20 10,20 C5.03753391,20 1,15.9946667 1,11.0717778 C1,9.50177778 1.41643229,7.958 2.20449511,6.60711111 C2.99457401,5.25222222 4.13388257,4.12222222 5.49943998,3.33844444 C5.66991065,3.24066667 5.88831919,3.29822222 5.98643503,3.46733333 C6.08522289,3.63644444 6.02698061,3.85288889 5.85650994,3.95066667 Z M9.64337805,0.353777778 C9.64337805,0.158222222 9.8030963,1.0658141e-14 10,1.0658141e-14 C10.1969037,1.0658141e-14 10.3566219,0.158222222 10.3566219,0.353777778 L10.3566219,11.0717778 C10.3566219,11.2668889 10.1969037,11.4255556 10,11.4255556 C9.8030963,11.4255556 9.64337805,11.2668889 9.64337805,11.0717778 L9.64337805,0.353777778 Z" id="Shape"></path>
        </g>
    </g>
</svg>