
<svg width="20px" height="20px" viewBox="0 0 20 20" version="1.1" xmlns="http://www.w3.org/2000/svg" xmlns:xlink="http://www.w3.org/1999/xlink">
    <g id="Symbols" stroke="none" stroke-width="1" fill="none" fill-rule="evenodd">
        <g id="Icons-/-Question-/-Outline" fill="#FFFFFF">
            <path d="M10,16.0615556 C9.64481954,16.0615556 9.35688889,15.7736249 9.35688889,15.4184444 C9.35688889,15.063264 9.64481954,14.7753333 10,14.7753333 C10.3551805,14.7753333 10.6431111,15.063264 10.6431111,15.4184444 C10.6431111,15.7736249 10.3551805,16.0615556 10,16.0615556 Z M10,0 C15.514,0 20,4.48622222 20,10 C20,15.5137778 15.5137778,20 10,20 C4.48622222,20 0,15.5137778 0,10 C0,4.48622222 4.48622222,0 10,0 Z M10,19.2924444 C15.124,19.2924444 19.2924444,15.1237778 19.2924444,10 C19.2924444,4.87622222 15.124,0.707555556 10,0.707555556 C4.876,0.707555556 0.707555556,4.87622222 0.707555556,10 C0.707555556,15.1237778 4.876,19.2924444 10,19.2924444 Z M10,4.28733333 C11.8235556,4.28733333 13.3071111,5.77044444 13.3064444,7.59422222 C13.3064444,8.47733333 12.9626667,9.30777778 12.338,9.93288889 C12.2304444,10.0406667 12.0986667,10.1468889 11.9462222,10.2704444 C11.3564444,10.7482222 10.4864444,11.4524444 10.3668889,12.8791111 C10.3515556,13.0644444 10.2026667,13.2155556 10.0164444,13.2155556 L9.98266667,13.2155556 C9.79644444,13.2155556 9.64422222,13.0644444 9.65711111,12.8788889 C9.77911111,11.1144444 10.8477778,10.25 11.5013333,9.72066667 C11.6384444,9.60977778 11.7568889,9.51377778 11.8377778,9.43266667 C12.3288889,8.94155556 12.5991111,8.28844444 12.5991111,7.59422222 C12.5991111,6.16088889 11.4333333,4.99444444 9.99977778,4.99444444 C8.68,4.99444444 7.58666667,5.98288889 7.42155556,7.25844444 C7.39777778,7.44288889 7.24955556,7.59422222 7.06333333,7.59422222 L7.02955556,7.59422222 C6.84355556,7.59422222 6.69088889,7.44311111 6.70977778,7.25822222 C6.87866667,5.59177778 8.28977778,4.28733333 10,4.28733333 Z" id="Shape"></path>
        </g>
    </g>
</svg>