
<svg width="20px" height="20px" viewBox="0 0 20 20" version="1.1" xmlns="http://www.w3.org/2000/svg" xmlns:xlink="http://www.w3.org/1999/xlink">
    <defs>
        <path d="M14.7260641,1.84747929e-06 C14.5622991,9.72232966e-05 14.2860332,0.0437327972 14.1224215,0.081755693 L2.10974329,4.59060876 C0.584769558,5.0934034 0,5.72545085 0,7.27974262 C6.34486146e-17,8.31593713 6.34486146e-17,9.11747191 0,9.68434697 L0,17.5852473 C0,18.8862085 1.10214283,20 2.5,20 L17.5,20 C18.8960467,20 20,18.8879654 20,17.5852473 L20,6.92160406 C20,5.61976025 18.8970533,4.91954668 17.5,4.91954668 L4.27167515,4.91954668 C11.0421512,2.45108875 14.478366,1.20346447 14.5803198,1.17667384 C14.7263055,1.17667384 14.8323441,1.22987324 14.9048424,1.32589401 C14.9773407,1.42191479 15,1.58675648 15,1.78042083 L15,2.94240691 L16.187874,2.94240691 L16.187874,1.73400177 C16.187874,1.15300873 16.1165387,0.700884785 15.6599171,0.318861876 C15.3174521,0.0323450809 15.2173624,-0.00028426448 14.7260641,1.84747929e-06 Z M2.5,5.89541673 L17.5,5.89541673 C18.2862564,5.89541673 18.8923454,6.50206505 18.8923454,7.18219908 L18.8923454,17.4763884 C18.8923454,18.3945663 18.4098003,18.9225148 17.5,18.9225148 L2.5,18.9225148 C1.58220865,18.9225148 1.08243868,18.3327624 1.08243868,17.4763884 L1.08243868,7.27794134 C1.08243868,6.39395193 1.67343841,5.89541673 2.5,5.89541673 Z M15.375,10.1576143 C14.4775373,10.1576143 13.75,10.8920454 13.75,11.7980119 C13.75,12.7039785 14.4775373,13.4384095 15.375,13.4384095 C16.2724627,13.4384095 17,12.7039785 17,11.7980119 C17,10.8920454 16.2724627,10.1576143 15.375,10.1576143 Z" id="path-1"></path>
    </defs>
    <g id="Symbols" stroke="none" stroke-width="1" fill="none" fill-rule="evenodd">
        <g id="Icons-/-Wallet-/-Outline">
            <mask id="mask-2" fill="white">
                <use xlink:href="#path-1"></use>
            </mask>
            <use id="Shape" fill="#FFFFFF" transform="translate(10.000000, 10.000000) scale(-1, 1) translate(-10.000000, -10.000000) " xlink:href="#path-1"></use>
        </g>
    </g>
</svg>